<svg xmlns="http://www.w3.org/2000/svg" xmlns:xlink="http://www.w3.org/1999/xlink" preserveAspectRatio="xMidYMid" width="30" height="30" viewBox="0 0 30 30">
  <defs>
    <style>
      .cls-1 {
        fill: #393948;
        fill-rule: evenodd;
      }
    </style>
  </defs>
  <path d="M15.000,25.000 C9.477,25.000 5.000,20.523 5.000,15.000 C5.000,9.477 9.477,5.000 15.000,5.000 C20.523,5.000 25.000,9.477 25.000,15.000 C25.000,20.523 20.523,25.000 15.000,25.000 ZM19.667,13.833 L16.167,13.833 L16.167,10.333 C16.167,9.689 15.644,9.167 15.000,9.167 C14.356,9.167 13.833,9.689 13.833,10.333 L13.833,13.833 L10.333,13.833 C9.689,13.833 9.167,14.356 9.167,15.000 C9.167,15.644 9.689,16.167 10.333,16.167 L13.833,16.167 L13.833,19.667 C13.833,20.311 14.356,20.833 15.000,20.833 C15.644,20.833 16.167,20.311 16.167,19.667 L16.167,16.167 L19.667,16.167 C20.311,16.167 20.833,15.644 20.833,15.000 C20.833,14.356 20.311,13.833 19.667,13.833 Z" class="cls-1"/>
</svg>
