<svg xmlns="http://www.w3.org/2000/svg" xmlns:xlink="http://www.w3.org/1999/xlink" preserveAspectRatio="xMidYMid" width="25" height="25" viewBox="0 0 25 25">
  <defs>
    <style>
      .cls-1 {
        fill: #393948;
        fill-rule: evenodd;
      }
    </style>
  </defs>
  <path d="M17.700,13.800 L13.800,13.800 L13.800,17.700 C13.800,18.418 13.218,19.000 12.500,19.000 C11.782,19.000 11.200,18.418 11.200,17.700 L11.200,13.800 L7.300,13.800 C6.582,13.800 6.000,13.218 6.000,12.500 C6.000,11.782 6.582,11.200 7.300,11.200 L11.200,11.200 L11.200,7.300 C11.200,6.582 11.782,6.000 12.500,6.000 C13.218,6.000 13.800,6.582 13.800,7.300 L13.800,11.200 L17.700,11.200 C18.418,11.200 19.000,11.782 19.000,12.500 C19.000,13.218 18.418,13.800 17.700,13.800 Z" class="cls-1"/>
</svg>
