<?xml version="1.0" standalone="no"?><!-- Generator: Gravit.io --><svg xmlns="http://www.w3.org/2000/svg" xmlns:xlink="http://www.w3.org/1999/xlink" style="isolation:isolate" viewBox="0 0 20 20" width="20" height="20"><defs><clipPath id="_clipPath_kpxlkEaSQJ2q59TeACkVjvYxZtRtf94C"><rect width="20" height="20"/></clipPath></defs><g clip-path="url(#_clipPath_kpxlkEaSQJ2q59TeACkVjvYxZtRtf94C)"><rect width="20" height="20" style="fill:rgb(45,45,45, 0)"/><g style="isolation:isolate" id="Layer 0"><path d="M 9.46 12.158 L 9.46 12.158 C 9.163 11.86 9.163 11.377 9.46 11.079 L 12.698 7.842 C 12.995 7.544 13.479 7.544 13.777 7.842 L 13.777 7.842 C 14.074 8.14 14.074 8.623 13.777 8.921 L 10.54 12.158 C 10.242 12.456 9.758 12.456 9.46 12.158 Z" style="stroke:none;fill:#FFFFFF;stroke-miterlimit:10;"/><path d="M 10.54 12.158 L 10.54 12.158 C 10.242 12.456 9.758 12.456 9.46 12.158 L 6.223 8.921 C 5.926 8.623 5.926 8.14 6.223 7.842 L 6.223 7.842 C 6.521 7.544 7.005 7.544 7.302 7.842 L 10.54 11.079 C 10.837 11.377 10.837 11.86 10.54 12.158 Z" style="stroke:none;fill:#FFFFFF;stroke-miterlimit:10;"/></g></g></svg>