<svg xmlns="http://www.w3.org/2000/svg" xmlns:xlink="http://www.w3.org/1999/xlink" preserveAspectRatio="xMidYMid" viewBox="0 0 30 30">
  <defs>
    <style>
      .cls-1 {
        fill: #393948;
        fill-rule: evenodd;
      }
    </style>
  </defs>
  <path d="M21.588,13.865 L16.151,18.586 C16.137,18.598 16.118,18.602 16.103,18.614 C16.058,18.657 16.031,18.709 15.975,18.747 C15.763,18.891 15.506,18.946 15.246,18.957 C15.175,18.965 15.107,18.968 15.036,18.968 C15.024,18.967 15.014,18.967 15.002,18.965 C14.683,18.960 14.367,18.888 14.116,18.712 C13.906,18.566 13.795,18.375 13.732,18.174 L9.327,13.773 C8.847,13.293 8.903,12.602 9.452,12.229 C10.001,11.856 10.836,11.943 11.317,12.423 L15.107,16.210 L19.494,12.401 C20.040,11.927 20.952,11.871 21.530,12.275 C22.108,12.679 22.134,13.391 21.588,13.865 Z" class="cls-1"/>
</svg>
