<?xml version="1.0" standalone="no"?><!-- Generator: Gravit.io --><svg xmlns="http://www.w3.org/2000/svg" xmlns:xlink="http://www.w3.org/1999/xlink" style="isolation:isolate" viewBox="0 0 20 20" width="20" height="20"><defs><clipPath id="_clipPath_YcHR3xZPZKm8ICO8PvnJ3CgzeDLlPGrt"><rect width="20" height="20"/></clipPath></defs><g clip-path="url(#_clipPath_YcHR3xZPZKm8ICO8PvnJ3CgzeDLlPGrt)"><rect width="20" height="20" style="fill:rgb(47,47,47)" fill-opacity="0"/><path d=" M 8.2 4.875 C 5.767 5.64 4 7.916 4 10.6 L 4 10.6 C 4 13.911 6.689 16.6 10 16.6 C 13.311 16.6 16 13.911 16 10.6 C 16 7.916 14.233 5.64 11.8 4.875 L 11.8 7.028 C 13.105 7.687 14 9.04 14 10.6 C 14 12.808 12.208 14.6 10 14.6 C 7.792 14.6 6 12.808 6 10.6 L 6 10.6 C 6 9.04 6.895 7.687 8.2 7.028 L 8.2 4.875 Z " fill-rule="evenodd" fill="rgb(0,0,0)"/><path d="M 10 3.4 L 10 3.4 C 10.688 3.4 11.247 4.028 11.247 4.801 L 11.247 9.199 C 11.247 9.972 10.688 10.6 10 10.6 L 10 10.6 C 9.312 10.6 8.753 9.972 8.753 9.199 L 8.753 4.801 C 8.753 4.028 9.312 3.4 10 3.4 Z" style="stroke:none;fill:#000000;stroke-miterlimit:10;"/></g></svg>