<?xml version="1.0" standalone="no"?><!-- Generator: Gravit.io --><svg xmlns="http://www.w3.org/2000/svg" xmlns:xlink="http://www.w3.org/1999/xlink" style="isolation:isolate" viewBox="0 0 20 20" width="20" height="20"><defs><clipPath id="_clipPath_VPbxzx8SUm68zBEZ8Y3MXN231tIAfdIq"><rect width="20" height="20"/></clipPath></defs><g clip-path="url(#_clipPath_VPbxzx8SUm68zBEZ8Y3MXN231tIAfdIq)"><rect width="20" height="20" style="fill:rgb(51,51,51)" fill-opacity="0"/><path d=" M 4.987 9.952 C 4.987 7.192 7.227 4.952 9.987 4.952 C 12.746 4.952 14.987 7.192 14.987 9.952 C 14.987 12.711 12.746 14.952 9.987 14.952 C 7.227 14.952 4.987 12.711 4.987 9.952 Z  M 6.987 9.952 C 6.987 8.296 8.331 6.952 9.987 6.952 C 11.643 6.952 12.987 8.296 12.987 9.952 C 12.987 11.607 11.643 12.952 9.987 12.952 C 8.331 12.952 6.987 11.607 6.987 9.952 Z " fill-rule="evenodd" fill="rgb(0,0,0)"/><polygon points="11.487,5.452,10.737,6.952,9.237,6.952,8.487,5.452,9.237,3.952,10.737,3.952" fill="rgb(0,0,0)"/><polygon points="14.522,11.463,13.022,10.713,13.022,9.213,14.522,8.463,16.022,9.213,16.022,10.713" fill="rgb(0,0,0)"/><polygon points="5.478,8.46,6.978,9.21,6.978,10.71,5.478,11.46,3.978,10.71,3.978,9.21" fill="rgb(0,0,0)"/><polygon points="7.807,5.764,8.329,7.357,7.263,8.412,5.675,7.874,5.153,6.28,6.219,5.225" fill="rgb(0,0,0)"/><polygon points="12.166,5.761,13.757,5.231,14.817,6.291,14.287,7.882,12.696,8.413,11.635,7.352" fill="rgb(0,0,0)"/><polygon points="5.633,11.898,7.252,11.46,8.25,12.579,7.63,14.137,6.011,14.576,5.013,13.457" fill="rgb(0,0,0)"/><polygon points="14.334,12.083,14.864,13.674,13.803,14.735,12.212,14.205,11.682,12.614,12.743,11.553" fill="rgb(0,0,0)"/><polygon points="8.487,14.548,9.237,13.048,10.737,13.048,11.487,14.548,10.737,16.048,9.237,16.048" fill="rgb(0,0,0)"/></g></svg>