<svg xmlns="http://www.w3.org/2000/svg" xmlns:xlink="http://www.w3.org/1999/xlink" preserveAspectRatio="xMidYMid" width="20" height="20" viewBox="0 0 20 20">
  <defs>
    <style>
      .cls-1 {
        fill: #f26522;
        fill-rule: evenodd;
      }
    </style>
  </defs>
  <path d="M10.755,11.800 L13.618,14.664 C13.882,14.927 13.882,15.355 13.618,15.618 C13.355,15.882 12.927,15.882 12.664,15.618 L9.800,12.755 L6.936,15.618 C6.673,15.882 6.245,15.882 5.982,15.618 C5.718,15.355 5.718,14.927 5.982,14.664 L8.845,11.800 L5.982,8.936 C5.718,8.673 5.718,8.245 5.982,7.982 C6.245,7.718 6.673,7.718 6.936,7.982 L9.800,10.845 L12.664,7.982 C12.927,7.718 13.355,7.718 13.618,7.982 C13.882,8.245 13.882,8.673 13.618,8.936 L10.755,11.800 Z" class="cls-1"/>
</svg>
