<svg xmlns="http://www.w3.org/2000/svg" xmlns:xlink="http://www.w3.org/1999/xlink" preserveAspectRatio="xMidYMid" width="22" height="22" viewBox="0 0 22 22">
  <defs>
    <style>
      .cls-1 {
        fill: red;
      }

      .cls-1, .cls-2 {
        fill-rule: evenodd;
      }

      .cls-2 {
        fill: #6d6d6d;
      }
    </style>
  </defs>
  <path d="M14.895,10.998 L17.400,13.355 C17.676,13.615 17.676,14.037 17.400,14.297 C17.123,14.558 16.675,14.558 16.398,14.297 L13.894,11.941 L11.389,14.297 C11.113,14.558 10.664,14.558 10.387,14.297 C10.111,14.037 10.111,13.615 10.387,13.355 L12.892,10.998 L10.387,8.641 C10.111,8.381 10.111,7.959 10.387,7.698 C10.664,7.438 11.113,7.438 11.389,7.698 L13.894,10.055 L16.398,7.698 C16.675,7.438 17.123,7.438 17.400,7.698 C17.676,7.959 17.676,8.381 17.400,8.641 L14.895,10.998 Z" class="cls-1"/>
  <path d="M12.320,11.469 L8.813,14.769 C8.537,15.029 8.088,15.029 7.812,14.769 C7.535,14.508 7.535,14.086 7.812,13.826 L9.967,11.798 L4.840,11.798 C4.597,11.798 4.400,11.601 4.400,11.358 L4.400,10.656 C4.400,10.413 4.597,10.216 4.840,10.216 L9.986,10.216 L7.812,8.170 C7.535,7.909 7.535,7.487 7.812,7.227 C8.088,6.967 8.537,6.967 8.813,7.227 L12.320,10.527 C12.596,10.787 12.596,11.209 12.320,11.469 Z" class="cls-2"/>
</svg>
