<svg xmlns="http://www.w3.org/2000/svg" xmlns:xlink="http://www.w3.org/1999/xlink" preserveAspectRatio="xMidYMid" width="20" height="20" viewBox="0 0 20 20">
  <defs>
    <style>
      .cls-1 {
        fill: #ec008c;
        fill-rule: evenodd;
      }
    </style>
  </defs>
  <path d="M10.755,11.800 L13.813,14.858 C13.969,15.014 13.969,15.268 13.813,15.424 L13.424,15.813 C13.268,15.969 13.014,15.969 12.858,15.813 L9.800,12.755 L6.742,15.813 C6.586,15.969 6.332,15.969 6.176,15.813 L5.787,15.424 C5.631,15.268 5.631,15.014 5.787,14.858 L8.845,11.800 L5.787,8.742 C5.631,8.586 5.631,8.332 5.787,8.176 L6.176,7.787 C6.332,7.631 6.586,7.631 6.742,7.787 L9.800,10.845 L12.858,7.787 C13.014,7.631 13.268,7.631 13.424,7.787 L13.813,8.176 C13.969,8.332 13.969,8.586 13.813,8.742 L10.755,11.800 Z" class="cls-1"/>
</svg>
