<?xml version="1.0" standalone="no"?><!-- Generator: Gravit.io --><svg xmlns="http://www.w3.org/2000/svg" xmlns:xlink="http://www.w3.org/1999/xlink" style="isolation:isolate" viewBox="0 0 20 20" width="20" height="20"><defs><clipPath id="_clipPath_3jH7y6olTCeKlRA1bamA3GjjkGyxVrsD"><rect width="20" height="20"/></clipPath></defs><g clip-path="url(#_clipPath_3jH7y6olTCeKlRA1bamA3GjjkGyxVrsD)"><rect width="20" height="20" style="fill:rgb(45,45,45,0)"/><g style="isolation:isolate" id="Layer 0"><path d="M 15.54 10.54 L 15.54 10.54 C 15.242 10.837 14.758 10.837 14.46 10.54 L 11.223 7.302 C 10.926 7.005 10.926 6.521 11.223 6.223 L 11.223 6.223 C 11.521 5.926 12.005 5.926 12.302 6.223 L 15.54 9.46 C 15.837 9.758 15.837 10.242 15.54 10.54 Z" style="stroke:none;fill:#FFFFFF;stroke-miterlimit:10;"/><path d="M 4.223 9.46 L 4.223 9.46 C 4.521 9.163 5.005 9.163 5.302 9.46 L 8.54 12.698 C 8.837 12.995 8.837 13.479 8.54 13.777 L 8.54 13.777 C 8.242 14.074 7.758 14.074 7.46 13.777 L 4.223 10.54 C 3.926 10.242 3.926 9.758 4.223 9.46 Z" style="stroke:none;fill:#FFFFFF;stroke-miterlimit:10;"/><path d="M 15.54 9.46 L 15.54 9.46 C 15.837 9.758 15.837 10.242 15.54 10.54 L 12.302 13.777 C 12.005 14.074 11.521 14.074 11.223 13.777 L 11.223 13.777 C 10.926 13.479 10.926 12.995 11.223 12.698 L 14.46 9.46 C 14.758 9.163 15.242 9.163 15.54 9.46 Z" style="stroke:none;fill:#FFFFFF;stroke-miterlimit:10;"/><path d="M 4.223 10.54 L 4.223 10.54 C 3.926 10.242 3.926 9.758 4.223 9.46 L 7.46 6.223 C 7.758 5.926 8.242 5.926 8.54 6.223 L 8.54 6.223 C 8.837 6.521 8.837 7.005 8.54 7.302 L 5.302 10.54 C 5.005 10.837 4.521 10.837 4.223 10.54 Z" style="stroke:none;fill:#FFFFFF;stroke-miterlimit:10;"/></g></g></svg>