<svg xmlns="http://www.w3.org/2000/svg" xmlns:xlink="http://www.w3.org/1999/xlink" preserveAspectRatio="xMidYMid" width="12" height="12" viewBox="0 0 12 12">
  <defs>
    <style>
      .cls-1 {
        fill: #393948;
        fill-rule: evenodd;
      }
    </style>
  </defs>
  <path d="M8.428,5.978 L11.122,8.623 C12.059,9.544 12.301,10.858 11.661,11.557 C11.021,12.257 9.742,12.078 8.805,11.157 L6.024,8.426 L3.377,11.122 C2.456,12.059 1.142,12.301 0.443,11.661 C-0.257,11.021 -0.078,9.742 0.843,8.805 L3.576,6.022 L0.881,3.375 C-0.057,2.455 -0.298,1.141 0.341,0.441 C0.981,-0.259 2.260,-0.079 3.198,0.841 L5.980,3.574 L8.625,0.881 C9.545,-0.057 10.859,-0.298 11.559,0.341 C12.259,0.981 12.079,2.260 11.159,3.198 L8.428,5.978 Z" class="cls-1"/>
</svg>
