<svg xmlns="http://www.w3.org/2000/svg" xmlns:xlink="http://www.w3.org/1999/xlink" preserveAspectRatio="xMidYMid" width="20" height="20" viewBox="0 0 20 20">
  <defs>
    <style>
      .cls-1 {
        fill: #fff;
        fill-rule: evenodd;
      }
    </style>
  </defs>
  <path d="M10.566,10.000 L13.960,13.394 C14.116,13.550 14.116,13.804 13.960,13.960 C13.804,14.116 13.550,14.116 13.394,13.960 L10.000,10.566 L6.606,13.960 C6.450,14.116 6.196,14.116 6.040,13.960 C5.884,13.804 5.884,13.550 6.040,13.394 L9.434,10.000 L6.040,6.606 C5.884,6.450 5.884,6.196 6.040,6.040 C6.196,5.884 6.450,5.884 6.606,6.040 L10.000,9.434 L13.394,6.040 C13.550,5.884 13.804,5.884 13.960,6.040 C14.116,6.196 14.116,6.450 13.960,6.606 L10.566,10.000 Z" class="cls-1"/>
</svg>
