<svg xmlns="http://www.w3.org/2000/svg" xmlns:xlink="http://www.w3.org/1999/xlink" preserveAspectRatio="xMidYMid" width="16" height="16" viewBox="0 0 16 16">
  <defs>
    <style>
      .cls-1 {
        fill: #d1d1d1;
        fill-rule: evenodd;
      }
    </style>
  </defs>
  <path d="M9.414,8.000 L12.950,11.536 C13.340,11.926 13.340,12.559 12.950,12.950 C12.559,13.340 11.926,13.340 11.536,12.950 L8.000,9.414 L4.464,12.950 C4.074,13.340 3.441,13.340 3.050,12.950 C2.660,12.559 2.660,11.926 3.050,11.536 L6.586,8.000 L3.050,4.464 C2.660,4.074 2.660,3.441 3.050,3.050 C3.441,2.660 4.074,2.660 4.464,3.050 L8.000,6.586 L11.536,3.050 C11.926,2.660 12.559,2.660 12.950,3.050 C13.340,3.441 13.340,4.074 12.950,4.464 L9.414,8.000 Z" class="cls-1"/>
</svg>
