<svg xmlns="http://www.w3.org/2000/svg" xmlns:xlink="http://www.w3.org/1999/xlink" preserveAspectRatio="xMidYMid" width="20" height="20" viewBox="0 0 20 20">
  <defs>
    <style>
      .cls-1 {
        fill: #fff;
        fill-rule: evenodd;
      }
    </style>
  </defs>
  <path d="M11.078,10.001 L13.771,12.694 C14.069,12.991 14.069,13.474 13.771,13.771 C13.474,14.069 12.991,14.069 12.694,13.771 L10.001,11.078 L7.307,13.771 C7.010,14.069 6.527,14.069 6.230,13.771 C5.932,13.474 5.932,12.991 6.230,12.694 L8.923,10.001 L6.230,7.307 C5.932,7.010 5.932,6.527 6.230,6.230 C6.527,5.932 7.010,5.932 7.307,6.230 L10.001,8.923 L12.694,6.230 C12.991,5.932 13.474,5.932 13.771,6.230 C14.069,6.527 14.069,7.010 13.771,7.307 L11.078,10.001 Z" class="cls-1"/>
</svg>
