<svg xmlns="http://www.w3.org/2000/svg" xmlns:xlink="http://www.w3.org/1999/xlink" preserveAspectRatio="xMidYMid" width="20" height="20" viewBox="0 0 20 20">
  <defs>
    <style>
      .cls-1 {
        fill: #b7b09f;
        fill-rule: evenodd;
      }
    </style>
  </defs>
  <path d="M10.000,11.600 C9.337,11.600 8.800,11.063 8.800,10.400 C8.800,9.737 9.337,9.200 10.000,9.200 C10.663,9.200 11.200,9.737 11.200,10.400 C11.200,11.063 10.663,11.600 10.000,11.600 ZM10.000,6.800 C9.337,6.800 8.800,6.263 8.800,5.600 C8.800,4.937 9.337,4.400 10.000,4.400 C10.663,4.400 11.200,4.937 11.200,5.600 C11.200,6.263 10.663,6.800 10.000,6.800 ZM10.000,13.600 C10.663,13.600 11.200,14.137 11.200,14.800 C11.200,15.463 10.663,16.000 10.000,16.000 C9.337,16.000 8.800,15.463 8.800,14.800 C8.800,14.137 9.337,13.600 10.000,13.600 Z" class="cls-1"/>
</svg>
