<svg xmlns="http://www.w3.org/2000/svg" xmlns:xlink="http://www.w3.org/1999/xlink" preserveAspectRatio="xMidYMid" width="20" height="20" viewBox="0 0 20 20">
  <defs>
    <style>
      .cls-1 {
        fill: #dadada;
        fill-rule: evenodd;
      }
    </style>
  </defs>
  <path d="M10.731,10.000 L13.277,12.546 C13.589,12.858 13.589,13.365 13.277,13.677 C12.965,13.989 12.458,13.989 12.146,13.677 L9.600,11.131 L7.054,13.677 C6.742,13.989 6.235,13.989 5.923,13.677 C5.611,13.365 5.611,12.858 5.923,12.546 L8.469,10.000 L5.923,7.454 C5.611,7.142 5.611,6.635 5.923,6.323 C6.235,6.011 6.742,6.011 7.054,6.323 L9.600,8.869 L12.146,6.323 C12.458,6.011 12.965,6.011 13.277,6.323 C13.589,6.635 13.589,7.142 13.277,7.454 L10.731,10.000 Z" class="cls-1"/>
</svg>
