<svg xmlns="http://www.w3.org/2000/svg" xmlns:xlink="http://www.w3.org/1999/xlink" preserveAspectRatio="xMidYMid" width="22" height="22" viewBox="0 0 22 22">
  <defs>
    <style>
      .cls-1 {
        fill: #fdfcfc;
        fill-rule: evenodd;
      }
    </style>
  </defs>
  <path d="M14.080,7.920 C13.507,7.920 13.031,7.550 12.849,7.040 L10.116,7.040 L7.445,11.666 L9.859,15.848 C9.873,15.847 9.886,15.840 9.900,15.840 L12.849,15.840 C13.031,15.330 13.507,14.960 14.080,14.960 C14.809,14.960 15.400,15.551 15.400,16.280 C15.400,17.009 14.809,17.600 14.080,17.600 C13.692,17.600 13.352,17.426 13.111,17.160 L9.900,17.160 C9.809,17.160 9.723,17.142 9.644,17.108 C9.360,17.189 9.048,17.083 8.894,16.816 L6.511,12.689 C6.397,12.721 6.285,12.760 6.160,12.760 C5.431,12.760 4.840,12.169 4.840,11.440 C4.840,10.711 5.431,10.120 6.160,10.120 C6.367,10.120 6.557,10.177 6.731,10.262 L9.092,6.173 C9.186,6.011 9.337,5.906 9.505,5.865 C9.617,5.779 9.749,5.720 9.900,5.720 L13.111,5.720 C13.352,5.454 13.692,5.280 14.080,5.280 C14.809,5.280 15.400,5.871 15.400,6.600 C15.400,7.329 14.809,7.920 14.080,7.920 Z" class="cls-1"/>
</svg>
