<svg xmlns="http://www.w3.org/2000/svg" xmlns:xlink="http://www.w3.org/1999/xlink" preserveAspectRatio="xMidYMid" width="20" height="20" viewBox="0 0 20 20">
  <defs>
    <style>
      .cls-1 {
        fill: #59ad52;
        fill-rule: evenodd;
      }
    </style>
  </defs>
  <path d="M12.969,6.250 C12.493,6.250 12.061,6.080 11.715,5.807 L8.621,8.906 C8.893,9.252 9.063,9.682 9.063,10.156 C9.063,10.663 8.870,11.120 8.564,11.476 L11.333,14.250 C11.689,13.943 12.148,13.750 12.656,13.750 C13.778,13.750 14.687,14.657 14.687,15.775 C14.687,16.893 13.778,17.800 12.656,17.800 C11.534,17.800 10.625,16.893 10.625,15.775 C10.625,15.417 10.726,15.085 10.890,14.794 L8.021,11.920 C7.727,12.085 7.393,12.188 7.031,12.188 C5.909,12.188 5.000,11.278 5.000,10.156 C5.000,9.034 5.909,8.125 7.031,8.125 C7.426,8.125 7.792,8.243 8.104,8.438 L11.247,5.289 C11.054,4.979 10.937,4.617 10.937,4.225 C10.937,3.107 11.847,2.200 12.969,2.200 C14.091,2.200 15.000,3.107 15.000,4.225 C15.000,5.343 14.091,6.250 12.969,6.250 ZM12.700,17.000 C13.418,17.000 14.000,16.418 14.000,15.700 C14.000,14.982 13.418,14.400 12.700,14.400 C11.982,14.400 11.400,14.982 11.400,15.700 C11.400,16.418 11.982,17.000 12.700,17.000 ZM7.000,9.000 C6.337,9.000 5.800,9.537 5.800,10.200 C5.800,10.863 6.337,11.400 7.000,11.400 C7.663,11.400 8.200,10.863 8.200,10.200 C8.200,9.537 7.663,9.000 7.000,9.000 ZM13.000,3.000 C12.337,3.000 11.800,3.537 11.800,4.200 C11.800,4.863 12.337,5.400 13.000,5.400 C13.663,5.400 14.200,4.863 14.200,4.200 C14.200,3.537 13.663,3.000 13.000,3.000 Z" class="cls-1"/>
</svg>
