<svg xmlns="http://www.w3.org/2000/svg" xmlns:xlink="http://www.w3.org/1999/xlink" preserveAspectRatio="xMidYMid" width="20" height="20" viewBox="0 0 20 20">
  <defs>
    <style>
      .cls-1 {
        fill: #00bff3;
        fill-rule: evenodd;
      }
    </style>
  </defs>
  <path d="M14.056,7.600 C14.053,7.626 14.060,7.651 14.046,7.675 L11.549,12.000 L12.000,12.000 L12.000,14.000 L10.000,14.000 L10.000,12.000 L10.399,12.000 L8.000,9.669 L8.000,10.000 L7.059,10.000 L4.749,14.000 L5.200,14.000 L5.200,16.000 L3.200,16.000 L3.200,14.000 L4.288,14.000 L6.597,10.000 L6.000,10.000 L6.000,8.000 L8.000,8.000 L8.000,9.111 L10.973,12.000 L11.088,12.000 L13.628,7.600 L12.800,7.600 L12.800,5.600 L14.800,5.600 L14.800,7.600 L14.056,7.600 Z" class="cls-1"/>
</svg>
