<?xml version="1.0" standalone="no"?><!-- Generator: Gravit.io --><svg xmlns="http://www.w3.org/2000/svg" xmlns:xlink="http://www.w3.org/1999/xlink" style="isolation:isolate" viewBox="0 0 20 20" width="20" height="20"><defs><clipPath id="_clipPath_v6mOtinAdceCWA6BQGqweaky5ZylNQUk"><rect width="20" height="20"/></clipPath></defs><g clip-path="url(#_clipPath_v6mOtinAdceCWA6BQGqweaky5ZylNQUk)"><rect width="20" height="20" style="fill:rgb(40,40,40,0)"/><path d="M 11.871 10.312 L 11.871 10.312 C 11.699 10.484 11.419 10.484 11.247 10.312 L 8.129 7.194 C 7.957 7.022 7.957 6.742 8.129 6.57 L 8.129 6.57 C 8.301 6.398 8.581 6.398 8.753 6.57 L 11.871 9.688 C 12.043 9.86 12.043 10.14 11.871 10.312 Z" style="stroke:none;fill:#FFFFFF;stroke-miterlimit:10;"/><path d="M 11.871 9.688 L 11.871 9.688 C 12.043 9.86 12.043 10.14 11.871 10.312 L 8.753 13.43 C 8.581 13.602 8.301 13.602 8.129 13.43 L 8.129 13.43 C 7.957 13.258 7.957 12.978 8.129 12.806 L 11.247 9.688 C 11.419 9.516 11.699 9.516 11.871 9.688 Z" style="stroke:none;fill:#FFFFFF;stroke-miterlimit:10;"/></g></svg>