<svg xmlns="http://www.w3.org/2000/svg" xmlns:xlink="http://www.w3.org/1999/xlink" preserveAspectRatio="xMidYMid" width="20" height="20" viewBox="0 0 20 20">
  <defs>
    <style>
      .cls-1 {
        fill: #fff;
        fill-rule: evenodd;
      }
    </style>
  </defs>
  <path d="M15.748,10.570 L12.464,13.756 C12.129,14.081 11.585,14.081 11.250,13.756 C10.914,13.430 10.914,12.903 11.250,12.577 L13.926,9.981 L11.250,7.385 C10.914,7.059 10.914,6.532 11.250,6.207 C11.585,5.881 12.129,5.881 12.464,6.207 L15.748,9.392 C16.083,9.717 16.083,10.245 15.748,10.570 Z" class="cls-1"/>
  <path d="M7.000,9.000 L13.000,9.000 C13.552,9.000 14.000,9.448 14.000,10.000 C14.000,10.552 13.552,11.000 13.000,11.000 L7.000,11.000 C6.448,11.000 6.000,10.552 6.000,10.000 C6.000,9.448 6.448,9.000 7.000,9.000 Z" class="cls-1"/>
</svg>
