<svg xmlns="http://www.w3.org/2000/svg" xmlns:xlink="http://www.w3.org/1999/xlink" preserveAspectRatio="xMidYMid" width="20" height="20" viewBox="0 0 20 20">
  <defs>
    <style>
      .cls-1 {
        fill: #fcf7f7;
        fill-rule: evenodd;
      }
    </style>
  </defs>
  <path d="M16.500,8.000 L14.000,8.000 L14.000,10.500 C14.000,10.776 13.776,11.000 13.500,11.000 C13.224,11.000 13.000,10.776 13.000,10.500 L13.000,8.000 L10.500,8.000 C10.224,8.000 10.000,7.776 10.000,7.500 C10.000,7.224 10.224,7.000 10.500,7.000 L13.000,7.000 L13.000,4.500 C13.000,4.224 13.224,4.000 13.500,4.000 C13.776,4.000 14.000,4.224 14.000,4.500 L14.000,7.000 L16.500,7.000 C16.776,7.000 17.000,7.224 17.000,7.500 C17.000,7.776 16.776,8.000 16.500,8.000 Z" class="cls-1"/>
  <path d="M4.500,10.000 L9.500,10.000 C9.776,10.000 10.000,10.224 10.000,10.500 C10.000,10.776 9.776,11.000 9.500,11.000 L4.500,11.000 C4.224,11.000 4.000,10.776 4.000,10.500 C4.000,10.224 4.224,10.000 4.500,10.000 Z" class="cls-1"/>
  <path d="M4.500,12.000 L12.500,12.000 C12.776,12.000 13.000,12.224 13.000,12.500 C13.000,12.776 12.776,13.000 12.500,13.000 L4.500,13.000 C4.224,13.000 4.000,12.776 4.000,12.500 C4.000,12.224 4.224,12.000 4.500,12.000 Z" class="cls-1"/>
  <path d="M4.500,14.000 L15.500,14.000 C15.776,14.000 16.000,14.224 16.000,14.500 C16.000,14.776 15.776,15.000 15.500,15.000 L4.500,15.000 C4.224,15.000 4.000,14.776 4.000,14.500 C4.000,14.224 4.224,14.000 4.500,14.000 Z" class="cls-1"/>
</svg>
