<?xml version="1.0" standalone="no"?><!-- Generator: Gravit.io --><svg xmlns="http://www.w3.org/2000/svg" xmlns:xlink="http://www.w3.org/1999/xlink" style="isolation:isolate" viewBox="0 0 20 20" width="20" height="20"><defs><clipPath id="_clipPath_E9Zx5x86gp0C3me52v8DtoTSFApKaTTs"><rect width="20" height="20"/></clipPath></defs><g clip-path="url(#_clipPath_E9Zx5x86gp0C3me52v8DtoTSFApKaTTs)"><rect width="20" height="20" style="fill:rgb(51,51,51,0)"/><path d=" M 4 10 C 4 6.689 6.689 4 10 4 C 13.311 4 16 6.689 16 10 C 16 13.311 13.311 16 10 16 C 6.689 16 4 13.311 4 10 Z  M 5.5 10 C 5.5 7.516 7.516 5.5 10 5.5 C 12.484 5.5 14.5 7.516 14.5 10 C 14.5 12.484 12.484 14.5 10 14.5 C 7.516 14.5 5.5 12.484 5.5 10 Z " fill-rule="evenodd" fill="rgb(255,255,255)"/><rect x="9.25" y="5.098" width="1.634" height="9.803" transform="matrix(0.707,0.707,-0.707,0.707,10.02,-4.189)" fill="rgb(255,255,255)"/></g></svg>