<svg xmlns="http://www.w3.org/2000/svg" xmlns:xlink="http://www.w3.org/1999/xlink" preserveAspectRatio="xMidYMid" width="20" height="20" viewBox="0 0 20 20">
  <defs>
    <style>
      .cls-1 {
        fill: #fff;
        fill-rule: evenodd;
      }
    </style>
  </defs>
  <path d="M15.300,12.600 L12.737,12.600 L12.737,13.820 C12.315,13.937 11.879,14.019 11.419,14.019 C10.303,14.019 9.283,13.642 8.456,13.025 L12.737,7.272 L12.737,11.000 L15.300,11.000 C15.576,11.000 15.800,11.224 15.800,11.500 L15.800,12.100 C15.800,12.376 15.576,12.600 15.300,12.600 ZM15.300,7.200 L12.791,7.200 L13.982,5.600 L15.300,5.600 C15.576,5.600 15.800,5.824 15.800,6.100 L15.800,6.700 C15.800,6.976 15.576,7.200 15.300,7.200 ZM7.209,11.685 C6.911,11.205 6.691,10.671 6.574,10.100 L1.700,10.100 C1.424,10.100 1.200,9.876 1.200,9.600 L1.200,8.969 C1.200,8.693 1.424,8.469 1.700,8.469 L6.542,8.469 C6.869,6.080 8.915,4.231 11.419,4.231 C11.839,4.231 12.239,4.305 12.627,4.405 L7.209,11.685 Z" class="cls-1"/>
</svg>
