<svg xmlns="http://www.w3.org/2000/svg" xmlns:xlink="http://www.w3.org/1999/xlink" preserveAspectRatio="xMidYMid" width="30" height="30" viewBox="0 0 30 30">
  <defs>
    <style>
      .cls-1 {
        fill: #393948;
        fill-rule: evenodd;
      }
    </style>
  </defs>
  <path d="M11.100,18.800 L18.900,18.800 C19.508,18.800 20.000,19.292 20.000,19.900 C20.000,20.508 19.508,21.000 18.900,21.000 L11.100,21.000 C10.492,21.000 10.000,20.508 10.000,19.900 C10.000,19.292 10.492,18.800 11.100,18.800 Z" class="cls-1"/>
  <path d="M14.108,16.933 L10.360,12.130 C9.875,11.640 9.875,10.844 10.360,10.354 C10.845,9.863 11.631,9.863 12.116,10.354 L14.986,14.269 L17.856,10.354 C18.341,9.863 19.127,9.863 19.612,10.354 C20.097,10.844 20.097,11.640 19.612,12.130 L15.864,16.933 C15.379,17.424 14.593,17.424 14.108,16.933 Z" class="cls-1"/>
</svg>
