<?xml version="1.0" standalone="no"?><!-- Generator: Gravit.io --><svg xmlns="http://www.w3.org/2000/svg" xmlns:xlink="http://www.w3.org/1999/xlink" style="isolation:isolate" viewBox="0 0 20 20" width="20" height="20"><defs><clipPath id="_clipPath_Rq5hGZl2Tmvps5rp58vGVrcRlG9LGH2O"><rect width="20" height="20"/></clipPath></defs><g clip-path="url(#_clipPath_Rq5hGZl2Tmvps5rp58vGVrcRlG9LGH2O)"><rect width="20" height="20" style="fill:rgb(45,45,45,0)"/><g style="isolation:isolate" id="Layer 0"><path d="M 13.373 7.101 L 13.373 7.101 C 13.612 7.273 13.666 7.607 13.494 7.846 L 10.867 11.489 C 10.694 11.728 10.361 11.783 10.122 11.61 L 10.122 11.61 C 9.883 11.438 9.828 11.104 10.001 10.865 L 12.628 7.222 C 12.8 6.983 13.134 6.928 13.373 7.101 Z" style="stroke:none;fill:#FFFFFF;stroke-miterlimit:10;"/><path d="M 6.408 10.789 L 6.408 10.789 C 6.437 10.496 6.698 10.281 6.991 10.31 L 10.408 10.646 C 10.701 10.675 10.916 10.936 10.887 11.229 L 10.887 11.229 C 10.858 11.523 10.597 11.737 10.304 11.708 L 6.887 11.373 C 6.594 11.344 6.379 11.082 6.408 10.789 Z" style="stroke:none;fill:#FFFFFF;stroke-miterlimit:10;"/><path d=" M 4 10 C 4 6.689 6.689 4 10 4 C 13.311 4 16 6.689 16 10 C 16 13.311 13.311 16 10 16 C 6.689 16 4 13.311 4 10 Z " fill="none" vector-effect="non-scaling-stroke" stroke-width="1.2" stroke="rgb(255,255,255)" stroke-linejoin="miter" stroke-linecap="square" stroke-miterlimit="3"/></g></g></svg>