<svg xmlns="http://www.w3.org/2000/svg" xmlns:xlink="http://www.w3.org/1999/xlink" preserveAspectRatio="xMidYMid" viewBox="0 0 30 30">
  <defs>
    <style>
      .cls-1 {
        fill: #393948;
        fill-rule: evenodd;
      }
    </style>
  </defs>
  <path d="M22.247,17.200 C22.156,17.200 22.068,17.191 21.981,17.178 C21.855,17.669 21.671,18.137 21.442,18.578 C21.896,18.894 22.194,19.420 22.194,20.016 C22.194,20.984 21.409,21.769 20.441,21.769 C19.901,21.769 19.419,21.525 19.098,21.142 C18.513,21.516 17.868,21.804 17.178,21.982 C17.191,22.068 17.200,22.156 17.200,22.247 C17.200,23.215 16.415,24.000 15.447,24.000 C14.479,24.000 13.694,23.215 13.694,22.247 C13.694,22.146 13.704,22.049 13.720,21.953 C13.207,21.812 12.721,21.608 12.265,21.356 C11.957,21.858 11.404,22.194 10.772,22.194 C9.804,22.194 9.019,21.409 9.019,20.441 C9.019,19.836 9.325,19.303 9.791,18.988 C9.450,18.432 9.186,17.825 9.018,17.178 C8.932,17.191 8.844,17.200 8.753,17.200 C7.785,17.200 7.000,16.415 7.000,15.447 C7.000,14.479 7.785,13.694 8.753,13.694 C8.853,13.694 8.951,13.704 9.047,13.720 C9.207,13.139 9.444,12.591 9.745,12.085 C9.306,11.766 9.019,11.250 9.019,10.666 C9.019,9.697 9.804,8.913 10.772,8.913 C11.371,8.913 11.899,9.213 12.215,9.671 C12.685,9.406 13.189,9.194 13.720,9.047 C13.704,8.951 13.694,8.854 13.694,8.753 C13.694,7.785 14.479,7.000 15.447,7.000 C16.415,7.000 17.200,7.785 17.200,8.753 C17.200,8.844 17.191,8.932 17.178,9.018 C17.710,9.156 18.215,9.360 18.687,9.616 C18.984,9.070 19.563,8.700 20.228,8.700 C21.196,8.700 21.981,9.485 21.981,10.453 C21.981,11.078 21.653,11.625 21.161,11.935 C21.506,12.483 21.777,13.081 21.953,13.720 C22.049,13.704 22.147,13.694 22.247,13.694 C23.215,13.694 24.000,14.479 24.000,15.447 C24.000,16.415 23.215,17.200 22.247,17.200 ZM15.500,10.719 C12.859,10.719 10.719,12.859 10.719,15.500 C10.719,18.141 12.859,20.281 15.500,20.281 C18.141,20.281 20.281,18.141 20.281,15.500 C20.281,12.859 18.141,10.719 15.500,10.719 Z" class="cls-1"/>
</svg>
