<svg xmlns="http://www.w3.org/2000/svg" xmlns:xlink="http://www.w3.org/1999/xlink" preserveAspectRatio="xMidYMid" width="20" height="20" viewBox="0 0 20 20">
  <defs>
    <style>
      .cls-1 {
        fill: #f6464d;
        fill-rule: evenodd;
      }
    </style>
  </defs>
  <path d="M10.568,6.281 L13.727,9.545 C14.049,9.878 14.049,10.419 13.727,10.752 C13.404,11.085 12.881,11.085 12.558,10.752 L9.983,8.092 L7.409,10.752 C7.086,11.085 6.563,11.085 6.240,10.752 C5.918,10.419 5.918,9.878 6.240,9.545 L9.399,6.281 C9.722,5.948 10.245,5.948 10.568,6.281 Z" class="cls-1"/>
  <path d="M10.000,7.000 C10.552,7.000 11.000,7.448 11.000,8.000 L11.000,14.000 C11.000,14.552 10.552,15.000 10.000,15.000 C9.448,15.000 9.000,14.552 9.000,14.000 L9.000,8.000 C9.000,7.448 9.448,7.000 10.000,7.000 Z" class="cls-1"/>
</svg>
