<svg xmlns="http://www.w3.org/2000/svg" xmlns:xlink="http://www.w3.org/1999/xlink" preserveAspectRatio="xMidYMid" width="20" height="20" viewBox="0 0 20 20">
  <defs>
    <style>
      .cls-1 {
        fill: #ed1c24;
        fill-rule: evenodd;
      }
    </style>
  </defs>
  <path d="M13.831,9.873 C13.597,10.131 13.216,10.131 12.981,9.873 L10.610,7.268 L10.610,15.600 C10.610,15.821 10.431,16.000 10.210,16.000 L9.790,16.000 C9.569,16.000 9.390,15.821 9.390,15.600 L9.390,7.276 L7.026,9.873 C6.792,10.131 6.411,10.131 6.176,9.873 C5.941,9.615 5.941,9.197 6.176,8.939 L9.578,5.201 C9.813,4.943 10.194,4.943 10.429,5.201 L13.831,8.939 C14.066,9.197 14.066,9.615 13.831,9.873 Z" class="cls-1"/>
</svg>
