<?xml version="1.0" standalone="no"?><!-- Generator: Gravit.io --><svg xmlns="http://www.w3.org/2000/svg" xmlns:xlink="http://www.w3.org/1999/xlink" style="isolation:isolate" viewBox="0 0 20 20" width="20" height="20"><defs><clipPath id="_clipPath_kJ3ScTYgHno15OFhF41dU0bqb1jk5K7K"><rect width="20" height="20"/></clipPath></defs><g clip-path="url(#_clipPath_kJ3ScTYgHno15OFhF41dU0bqb1jk5K7K)"><rect width="20" height="20" style="fill:rgb(40,40,40,0)"/><path d="M 8.129 9.688 L 8.129 9.688 C 8.301 9.516 8.581 9.516 8.753 9.688 L 11.871 12.806 C 12.043 12.978 12.043 13.258 11.871 13.43 L 11.871 13.43 C 11.699 13.602 11.419 13.602 11.247 13.43 L 8.129 10.312 C 7.957 10.14 7.957 9.86 8.129 9.688 Z" style="stroke:none;fill:#FFFFFF;stroke-miterlimit:10;"/><path d="M 8.129 10.312 L 8.129 10.312 C 7.957 10.14 7.957 9.86 8.129 9.688 L 11.247 6.57 C 11.419 6.398 11.699 6.398 11.871 6.57 L 11.871 6.57 C 12.043 6.742 12.043 7.022 11.871 7.194 L 8.753 10.312 C 8.581 10.484 8.301 10.484 8.129 10.312 Z" style="stroke:none;fill:#FFFFFF;stroke-miterlimit:10;"/></g></svg>