<?xml version="1.0" standalone="no"?><!-- Generator: Gravit.io --><svg xmlns="http://www.w3.org/2000/svg" xmlns:xlink="http://www.w3.org/1999/xlink" style="isolation:isolate" viewBox="0 0 20 20" width="20" height="20"><defs><clipPath id="_clipPath_t0IaMMXuPIFIsIbDNyWu1Gf4kPseFbhX"><rect width="20" height="20"/></clipPath></defs><g clip-path="url(#_clipPath_t0IaMMXuPIFIsIbDNyWu1Gf4kPseFbhX)"><rect width="20" height="20" style="fill:rgb(45,44,44,0)"/><g style="isolation:isolate" id="Layer 0"><path d=" M 8 10.756 L 11.965 14.721 C 12.228 14.984 12.228 15.411 11.965 15.674 L 11.889 15.75 C 11.626 16.013 11.199 16.013 10.936 15.75 L 5.789 10.603 L 5.713 10.527 C 5.45 10.264 5.45 9.837 5.713 9.574 L 5.789 9.498 L 10.936 4.351 C 11.199 4.088 11.626 4.088 11.889 4.351 L 11.965 4.427 C 12.228 4.69 12.228 5.117 11.965 5.38 L 8.045 9.3 L 14.326 9.3 C 14.698 9.3 15 9.602 15 9.974 L 15 10.082 C 15 10.454 14.698 10.756 14.326 10.756 L 8 10.756 Z " fill="rgb(255,255,255)"/></g></g></svg>