<?xml version="1.0" standalone="no"?><!-- Generator: Gravit.io --><svg xmlns="http://www.w3.org/2000/svg" xmlns:xlink="http://www.w3.org/1999/xlink" style="isolation:isolate" viewBox="0 0 20 20" width="20" height="20"><defs><clipPath id="_clipPath_DUh09OK3c2IPxlJ9JdLpmtWMafIx16mv"><rect width="20" height="20"/></clipPath></defs><g clip-path="url(#_clipPath_DUh09OK3c2IPxlJ9JdLpmtWMafIx16mv)"><rect width="20" height="20" style="fill:rgb(45,44,44,0)"/><g style="isolation:isolate" id="Layer 0"><path d=" M 12.515 9.345 L 8.55 5.38 C 8.287 5.117 8.287 4.69 8.55 4.427 L 8.626 4.351 C 8.889 4.088 9.316 4.088 9.579 4.351 L 14.726 9.498 L 14.803 9.574 C 15.066 9.837 15.066 10.264 14.803 10.527 L 14.726 10.603 L 9.579 15.75 C 9.316 16.013 8.889 16.013 8.626 15.75 L 8.55 15.674 C 8.287 15.411 8.287 14.984 8.55 14.721 L 12.47 10.801 L 6.189 10.801 C 5.817 10.801 5.515 10.499 5.515 10.127 L 5.515 10.019 C 5.515 9.647 5.817 9.345 6.189 9.345 L 12.515 9.345 Z " fill="rgb(255,255,255)"/></g></g></svg>