<?xml version="1.0" standalone="no"?><!-- Generator: Gravit.io --><svg xmlns="http://www.w3.org/2000/svg" xmlns:xlink="http://www.w3.org/1999/xlink" style="isolation:isolate" viewBox="0 0 20 20" width="20" height="20"><defs><clipPath id="_clipPath_9iqXCWLtVh5MYs8SuGEDNOEOja5EGQgg"><rect width="20" height="20"/></clipPath></defs><g clip-path="url(#_clipPath_9iqXCWLtVh5MYs8SuGEDNOEOja5EGQgg)"><rect width="20" height="20" style="fill:rgb(36,36,36,0)"/><path d=" M 5.388 9.063 L 9.063 5.388 C 9.58 4.871 10.42 4.871 10.937 5.388 L 14.612 9.063 C 15.129 9.58 15.129 10.42 14.612 10.937 L 10.937 14.612 C 10.42 15.129 9.58 15.129 9.063 14.612 L 5.388 10.937 C 4.871 10.42 4.871 9.58 5.388 9.063 Z  M 7.229 9.437 L 9.437 7.229 C 9.748 6.919 10.252 6.919 10.563 7.229 L 12.771 9.437 C 13.081 9.748 13.081 10.252 12.771 10.563 L 10.563 12.771 C 10.252 13.081 9.748 13.081 9.437 12.771 L 7.229 10.563 C 6.919 10.252 6.919 9.748 7.229 9.437 Z " fill-rule="evenodd" fill="rgb(255,255,255)"/></g></svg>