<?xml version="1.0" standalone="no"?><!-- Generator: Gravit.io --><svg xmlns="http://www.w3.org/2000/svg" xmlns:xlink="http://www.w3.org/1999/xlink" style="isolation:isolate" viewBox="0 0 20 20" width="20" height="20"><defs><clipPath id="_clipPath_Ll9rdDsfnjGynYkGfomLasorvD7h4QvF"><rect width="20" height="20"/></clipPath></defs><g clip-path="url(#_clipPath_Ll9rdDsfnjGynYkGfomLasorvD7h4QvF)"><rect width="20" height="20" style="fill:rgb(36,36,36,0)"/><g opacity="0"><path d=" M 9 10 C 9 9.448 9.448 9 10 9 C 10.552 9 11 9.448 11 10 C 11 10.552 10.552 11 10 11 C 9.448 11 9 10.552 9 10 Z " fill="rgb(255,255,255)"/></g><path d=" M 10 5 C 9.661 5 9.322 5.129 9.063 5.388 L 5.388 9.063 L 5.388 9.063 C 4.871 9.58 4.871 10.42 5.388 10.937 L 9.063 14.612 C 9.322 14.871 9.661 15 10 15 L 10 13.004 C 9.796 13.004 9.593 12.926 9.437 12.771 L 7.229 10.563 C 6.919 10.252 6.919 9.748 7.229 9.437 L 7.229 9.437 L 9.437 7.229 C 9.593 7.074 9.796 6.996 10 6.996 L 10 5 Z " fill-rule="evenodd" fill="rgb(255,255,255)"/></g></svg>