<svg xmlns="http://www.w3.org/2000/svg" xmlns:xlink="http://www.w3.org/1999/xlink" preserveAspectRatio="xMidYMid" width="20" height="20" viewBox="0 0 20 20">
  <defs>
    <style>
      .cls-1 {
        fill: #fff;
        fill-rule: evenodd;
      }
    </style>
  </defs>
  <path d="M15.200,14.275 L14.825,14.275 C14.604,14.275 14.425,14.096 14.425,13.875 L14.425,6.300 C14.425,6.079 14.604,5.900 14.825,5.900 L15.200,5.900 C15.421,5.900 15.600,6.079 15.600,6.300 L15.600,13.875 C15.600,14.096 15.421,14.275 15.200,14.275 ZM9.420,14.216 C9.189,14.449 8.816,14.449 8.586,14.216 C8.356,13.982 8.356,13.604 8.586,13.370 L11.239,10.680 L5.090,10.680 C4.706,10.680 4.394,10.412 4.394,10.082 C4.394,9.751 4.706,9.484 5.090,9.484 L11.360,9.484 C11.387,9.484 11.410,9.494 11.436,9.497 L8.586,6.606 C8.356,6.373 8.356,5.994 8.586,5.761 C8.816,5.527 9.189,5.527 9.420,5.761 L13.171,9.565 C13.401,9.799 13.401,10.178 13.171,10.411 L9.420,14.216 Z" class="cls-1"/>
</svg>
