<svg xmlns="http://www.w3.org/2000/svg" xmlns:xlink="http://www.w3.org/1999/xlink" preserveAspectRatio="xMidYMid" width="20" height="20" viewBox="0 0 20 20">
  <defs>
    <style>
      .cls-1 {
        fill: #c4df9b;
        fill-rule: evenodd;
      }
    </style>
  </defs>
  <path d="M9.432,14.749 L6.273,11.474 C5.951,11.140 5.951,10.597 6.273,10.263 C6.596,9.928 7.119,9.928 7.442,10.263 L10.017,12.932 L12.591,10.263 C12.914,9.928 13.437,9.928 13.760,10.263 C14.082,10.597 14.082,11.140 13.760,11.474 L10.601,14.749 C10.278,15.083 9.755,15.083 9.432,14.749 Z" class="cls-1"/>
  <path d="M10.000,6.000 C10.552,6.000 11.000,6.448 11.000,7.000 L11.000,13.031 C11.000,13.584 10.552,14.031 10.000,14.031 C9.448,14.031 9.000,13.584 9.000,13.031 L9.000,7.000 C9.000,6.448 9.448,6.000 10.000,6.000 Z" class="cls-1"/>
</svg>
