<svg xmlns="http://www.w3.org/2000/svg" xmlns:xlink="http://www.w3.org/1999/xlink" preserveAspectRatio="xMidYMid" width="20" height="20" viewBox="0 0 20 20">
  <defs>
    <style>
      .cls-1 {
        fill: #7cc576;
        fill-rule: evenodd;
      }
    </style>
  </defs>
  <path d="M13.815,11.734 L10.240,15.397 C9.993,15.650 9.593,15.650 9.346,15.397 L5.771,11.734 C5.524,11.481 5.524,11.071 5.771,10.818 C6.018,10.565 6.418,10.565 6.665,10.818 L9.162,13.377 L9.162,5.200 C9.162,4.979 9.342,4.800 9.563,4.800 L10.025,4.800 C10.246,4.800 10.425,4.979 10.425,5.200 L10.425,13.376 L12.921,10.818 C13.168,10.565 13.568,10.565 13.815,10.818 C14.062,11.071 14.062,11.481 13.815,11.734 Z" class="cls-1"/>
</svg>
