<?xml version="1.0" standalone="no"?><!-- Generator: Gravit.io --><svg xmlns="http://www.w3.org/2000/svg" xmlns:xlink="http://www.w3.org/1999/xlink" style="isolation:isolate" viewBox="0 0 25 25" width="25" height="25"><defs><clipPath id="_clipPath_ftKpghxbTrvKLy4z4eCb4kgrSemvBuxd"><rect width="25" height="25"/></clipPath></defs><g clip-path="url(#_clipPath_ftKpghxbTrvKLy4z4eCb4kgrSemvBuxd)"><rect width="25" height="25" style="fill:rgb(34,34,34,0)"/><path d="M 6.542 8.708 L 18.458 8.708 C 18.757 8.708 19 8.951 19 9.25 L 19 9.25 C 19 9.549 18.757 9.792 18.458 9.792 L 6.542 9.792 C 6.243 9.792 6 9.549 6 9.25 L 6 9.25 C 6 8.951 6.243 8.708 6.542 8.708 Z" style="stroke:none;fill:#EBEBEB;stroke-miterlimit:10;"/><path d="M 6.542 11.958 L 18.458 11.958 C 18.757 11.958 19 12.201 19 12.5 L 19 12.5 C 19 12.799 18.757 13.042 18.458 13.042 L 6.542 13.042 C 6.243 13.042 6 12.799 6 12.5 L 6 12.5 C 6 12.201 6.243 11.958 6.542 11.958 Z" style="stroke:none;fill:#EBEBEB;stroke-miterlimit:10;"/><path d="M 6.542 15.208 L 18.458 15.208 C 18.757 15.208 19 15.451 19 15.75 L 19 15.75 C 19 16.049 18.757 16.292 18.458 16.292 L 6.542 16.292 C 6.243 16.292 6 16.049 6 15.75 L 6 15.75 C 6 15.451 6.243 15.208 6.542 15.208 Z" style="stroke:none;fill:#EBEBEB;stroke-miterlimit:10;"/></g></svg>