<?xml version="1.0" standalone="no"?><!-- Generator: Gravit.io --><svg xmlns="http://www.w3.org/2000/svg" xmlns:xlink="http://www.w3.org/1999/xlink" style="isolation:isolate" viewBox="0 0 25 25" width="25" height="25"><defs><clipPath id="_clipPath_7dSMei6t1uNIUXr9tNlNp0NRSwlqbpDL"><rect width="25" height="25"/></clipPath></defs><g clip-path="url(#_clipPath_7dSMei6t1uNIUXr9tNlNp0NRSwlqbpDL)"><rect width="25" height="25" style="fill:rgb(34,34,34,0)"/><path d="M 17.096 8.67 L 8.67 17.096 C 8.458 17.308 8.115 17.308 7.904 17.096 L 7.904 17.096 C 7.692 16.885 7.692 16.542 7.904 16.33 L 16.33 7.904 C 16.542 7.692 16.885 7.692 17.096 7.904 L 17.096 7.904 C 17.308 8.115 17.308 8.458 17.096 8.67 Z" style="stroke:none;fill:#EBEBEB;stroke-miterlimit:10;"/><path d="M 8.67 7.904 L 17.096 16.33 C 17.308 16.542 17.308 16.885 17.096 17.096 L 17.096 17.096 C 16.885 17.308 16.542 17.308 16.33 17.096 L 7.904 8.67 C 7.692 8.458 7.692 8.115 7.904 7.904 L 7.904 7.904 C 8.115 7.692 8.458 7.692 8.67 7.904 Z" style="stroke:none;fill:#EBEBEB;stroke-miterlimit:10;"/></g></svg>