<?xml version="1.0" standalone="no"?><!-- Generator: Gravit.io --><svg xmlns="http://www.w3.org/2000/svg" xmlns:xlink="http://www.w3.org/1999/xlink" style="isolation:isolate" viewBox="0 0 20 20" width="20" height="20"><defs><clipPath id="_clipPath_uk68kX0ydEHeGdgTDr2pG6HAgLE08hQf"><rect width="20" height="20"/></clipPath></defs><g clip-path="url(#_clipPath_uk68kX0ydEHeGdgTDr2pG6HAgLE08hQf)"><rect width="20" height="20" style="fill:rgb(38,38,38)" fill-opacity="0"/><path d=" M 10 5.182 C 10 3.978 10.978 3 12.182 3 C 13.386 3 14.364 3.978 14.364 5.182 C 14.364 6.386 13.386 7.364 12.182 7.364 C 10.978 7.364 10 6.386 10 5.182 Z  M 10.727 5.182 C 10.727 4.379 11.379 3.727 12.182 3.727 C 12.985 3.727 13.636 4.379 13.636 5.182 C 13.636 5.985 12.985 6.636 12.182 6.636 C 11.379 6.636 10.727 5.985 10.727 5.182 Z " fill-rule="evenodd" fill="rgb(76,198,74)"/><path d=" M 10 14.818 C 10 13.614 10.978 12.636 12.182 12.636 C 13.386 12.636 14.364 13.614 14.364 14.818 C 14.364 16.022 13.386 17 12.182 17 C 10.978 17 10 16.022 10 14.818 Z " fill-rule="evenodd" fill="rgb(76,198,74)"/><path d=" M 5.636 10.818 C 5.636 10.015 6.288 9.364 7.091 9.364 C 7.894 9.364 8.545 10.015 8.545 10.818 C 8.545 11.621 7.894 12.273 7.091 12.273 C 6.288 12.273 5.636 11.621 5.636 10.818 Z " fill-rule="evenodd" fill="rgb(76,198,74)"/><line x1="7.091" y1="10.818" x2="10.727" y2="6.491" vector-effect="non-scaling-stroke" stroke-width="1" stroke="rgb(76,198,74)" stroke-linejoin="miter" stroke-linecap="square" stroke-miterlimit="3"/><line x1="7.818" y1="11.545" x2="10.727" y2="13.727" vector-effect="non-scaling-stroke" stroke-width="1" stroke="rgb(76,198,74)" stroke-linejoin="miter" stroke-linecap="square" stroke-miterlimit="3"/></g></svg>