<svg xmlns="http://www.w3.org/2000/svg" xmlns:xlink="http://www.w3.org/1999/xlink" preserveAspectRatio="xMidYMid" width="20" height="20" viewBox="0 0 20 20">
  <defs>
    <style>
      .cls-1 {
        fill: #f69679;
        fill-rule: evenodd;
      }
    </style>
  </defs>
  <path d="M14.200,11.600 L5.400,11.600 C4.848,11.600 4.400,11.152 4.400,10.600 C4.400,10.048 4.848,9.600 5.400,9.600 L14.200,9.600 C14.752,9.600 15.200,10.048 15.200,10.600 C15.200,11.152 14.752,11.600 14.200,11.600 ZM5.400,13.200 L14.200,13.200 C14.752,13.200 15.200,13.648 15.200,14.200 C15.200,14.752 14.752,15.200 14.200,15.200 L5.400,15.200 C4.848,15.200 4.400,14.752 4.400,14.200 C4.400,13.648 4.848,13.200 5.400,13.200 Z" class="cls-1"/>
</svg>
