<svg xmlns="http://www.w3.org/2000/svg" xmlns:xlink="http://www.w3.org/1999/xlink" preserveAspectRatio="xMidYMid" width="20" height="20" viewBox="0 0 20 20">
  <defs>
    <style>
      .cls-1 {
        fill: #e7be66;
        fill-rule: evenodd;
      }
    </style>
  </defs>
  <path d="M12.589,8.768 L10.015,6.099 L7.440,8.768 C7.117,9.103 6.594,9.103 6.272,8.768 C5.949,8.434 5.949,7.892 6.272,7.557 L9.431,4.282 C9.753,3.948 10.276,3.948 10.599,4.282 L13.758,7.557 C14.080,7.892 14.080,8.434 13.758,8.768 C13.435,9.103 12.912,9.103 12.589,8.768 ZM7.442,10.263 L10.017,12.932 L12.591,10.263 C12.914,9.928 13.437,9.928 13.760,10.263 C14.082,10.597 14.082,11.140 13.760,11.474 L10.601,14.749 C10.278,15.083 9.755,15.083 9.432,14.749 L6.273,11.474 C5.951,11.140 5.951,10.597 6.273,10.263 C6.596,9.928 7.119,9.928 7.442,10.263 Z" class="cls-1"/>
</svg>
