<svg xmlns="http://www.w3.org/2000/svg" xmlns:xlink="http://www.w3.org/1999/xlink" preserveAspectRatio="xMidYMid" width="20" height="20" viewBox="0 0 20 20">
  <defs>
    <style>
      .cls-1 {
        fill: #fff;
        fill-rule: evenodd;
      }
    </style>
  </defs>
  <path d="M14.167,10.833 L10.833,10.833 L10.833,14.167 C10.833,14.627 10.460,15.000 10.000,15.000 C9.540,15.000 9.167,14.627 9.167,14.167 L9.167,10.833 L5.833,10.833 C5.373,10.833 5.000,10.460 5.000,10.000 C5.000,9.540 5.373,9.167 5.833,9.167 L9.167,9.167 L9.167,5.833 C9.167,5.373 9.540,5.000 10.000,5.000 C10.460,5.000 10.833,5.373 10.833,5.833 L10.833,9.167 L14.167,9.167 C14.627,9.167 15.000,9.540 15.000,10.000 C15.000,10.460 14.627,10.833 14.167,10.833 Z" class="cls-1"/>
</svg>
