<svg xmlns="http://www.w3.org/2000/svg" xmlns:xlink="http://www.w3.org/1999/xlink" preserveAspectRatio="xMidYMid" width="20" height="20" viewBox="0 0 20 20">
  <defs>
    <style>
      .cls-1 {
        fill: #fff;
        fill-rule: evenodd;
      }
    </style>
  </defs>
  <path d="M17.000,10.000 C17.000,13.866 13.866,17.000 10.000,17.000 C6.134,17.000 3.000,13.866 3.000,10.000 C3.000,6.602 5.422,3.774 8.633,3.138 C8.717,2.390 9.329,1.800 10.100,1.800 C10.891,1.800 11.522,2.418 11.579,3.194 C14.681,3.912 17.000,6.679 17.000,10.000 ZM11.540,3.599 C11.397,4.279 10.822,4.800 10.100,4.800 C9.357,4.800 8.768,4.250 8.649,3.541 C5.652,4.165 3.400,6.818 3.400,10.000 C3.400,13.645 6.355,16.600 10.000,16.600 C13.645,16.600 16.600,13.645 16.600,10.000 C16.600,6.888 14.438,4.295 11.540,3.599 ZM10.000,12.800 C8.454,12.800 7.200,11.546 7.200,10.000 C7.200,8.454 8.454,7.200 10.000,7.200 C11.546,7.200 12.800,8.454 12.800,10.000 C12.800,11.546 11.546,12.800 10.000,12.800 Z" class="cls-1"/>
</svg>
