<svg xmlns="http://www.w3.org/2000/svg" xmlns:xlink="http://www.w3.org/1999/xlink" preserveAspectRatio="xMidYMid" width="35" height="35" viewBox="0 0 35 35">
  <defs>
    <style>
      .cls-1 {
        fill: #fff;
        fill-rule: evenodd;
      }
    </style>
  </defs>
  <path d="M29.750,17.500 C29.750,24.265 24.265,29.750 17.500,29.750 C10.735,29.750 5.250,24.265 5.250,17.500 C5.250,11.564 9.473,6.616 15.079,5.492 C15.222,4.177 16.322,3.150 17.675,3.150 C19.058,3.150 20.178,4.222 20.280,5.579 C25.704,6.840 29.750,11.692 29.750,17.500 ZM20.248,6.293 C20.007,7.494 18.947,8.400 17.675,8.400 C16.373,8.400 15.300,7.449 15.093,6.205 C9.870,7.313 5.950,11.947 5.950,17.500 C5.950,23.879 11.121,29.050 17.500,29.050 C23.879,29.050 29.050,23.879 29.050,17.500 C29.050,12.070 25.298,7.527 20.248,6.293 ZM17.500,22.400 C14.794,22.400 12.600,20.206 12.600,17.500 C12.600,14.794 14.794,12.600 17.500,12.600 C20.206,12.600 22.400,14.794 22.400,17.500 C22.400,20.206 20.206,22.400 17.500,22.400 Z" class="cls-1"/>
</svg>
