<svg xmlns="http://www.w3.org/2000/svg" xmlns:xlink="http://www.w3.org/1999/xlink" preserveAspectRatio="xMidYMid" width="50" height="50" viewBox="0 0 50 50">
  <defs>
    <style>
      .cls-1 {
        fill: #fff;
        fill-rule: evenodd;
      }
    </style>
  </defs>
  <path d="M42.500,25.000 C42.500,34.665 34.665,42.500 25.000,42.500 C15.335,42.500 7.500,34.665 7.500,25.000 C7.500,16.520 13.533,9.451 21.541,7.845 C21.745,5.967 23.318,4.500 25.250,4.500 C27.225,4.500 28.826,6.032 28.972,7.970 C36.720,9.771 42.500,16.703 42.500,25.000 ZM28.925,8.990 C28.582,10.706 27.068,12.000 25.250,12.000 C23.389,12.000 21.856,10.641 21.562,8.864 C14.100,10.447 8.500,17.067 8.500,25.000 C8.500,34.113 15.887,41.500 25.000,41.500 C34.113,41.500 41.500,34.113 41.500,25.000 C41.500,17.243 36.139,10.753 28.925,8.990 ZM25.000,32.000 C21.134,32.000 18.000,28.866 18.000,25.000 C18.000,21.134 21.134,18.000 25.000,18.000 C28.866,18.000 32.000,21.134 32.000,25.000 C32.000,28.866 28.866,32.000 25.000,32.000 Z" class="cls-1"/>
</svg>
