<?xml version="1.0" standalone="no"?><!-- Generator: Gravit.io --><svg xmlns="http://www.w3.org/2000/svg" xmlns:xlink="http://www.w3.org/1999/xlink" style="isolation:isolate" viewBox="0 0 20 20" width="20" height="20"><defs><clipPath id="_clipPath_NOzPyheT3udBqIHgaeuItFyHoznEoLNb"><rect width="20" height="20"/></clipPath></defs><g clip-path="url(#_clipPath_NOzPyheT3udBqIHgaeuItFyHoznEoLNb)"><rect width="20" height="20" style="fill:rgb(51,51,51)" fill-opacity="0"/><rect x="7.35" y="16.044" width="5.305" height="1.315" transform="matrix(1,0,0,1,0,0)" fill="rgb(56,121,251)"/><path d="M 7.35 18.115 L 12.656 18.115 L 12.656 18.773 C 12.656 19.136 12.361 19.43 11.998 19.43 L 8.008 19.43 C 7.645 19.43 7.35 19.136 7.35 18.773 L 7.35 18.115 Z" style="stroke:none;fill:#3879FB;stroke-miterlimit:10;"/><path d=" M 10.488 12.951 L 10.488 15.195 L 12.637 15.195 L 12.637 13.469 C 14.913 12.453 16.501 10.168 16.501 7.516 C 16.501 3.92 13.581 1 9.984 1 C 6.388 1 3.468 3.92 3.468 7.516 C 3.468 10.168 5.056 12.453 7.332 13.469 L 7.332 15.195 L 9.481 15.195 L 9.481 12.946 C 7.936 12.696 6.755 11.354 6.755 9.739 C 6.755 7.947 8.21 6.491 10.003 6.491 C 11.796 6.491 13.251 7.947 13.251 9.739 C 13.251 11.367 12.051 12.717 10.488 12.951 Z " fill-rule="evenodd" fill="rgb(56,121,251)"/><circle vector-effect="non-scaling-stroke" cx="9.984375000000005" cy="9.677212526783117" r="1.8615988698084305" fill="rgb(56,121,251)"/></g></svg>