<svg xmlns="http://www.w3.org/2000/svg" xmlns:xlink="http://www.w3.org/1999/xlink" preserveAspectRatio="xMidYMid" width="100" height="100" viewBox="0 0 100 100">
  <defs>
    <style>
      .cls-1 {
        fill: #fff;
        fill-rule: evenodd;
      }
    </style>
  </defs>
  <path d="M85.000,50.000 C85.000,69.330 69.330,85.000 50.000,85.000 C30.670,85.000 15.000,69.330 15.000,50.000 C15.000,33.052 27.047,18.919 43.045,15.693 C43.447,11.931 46.631,9.000 50.500,9.000 C54.447,9.000 57.675,12.051 57.971,15.923 C73.458,19.532 85.000,33.413 85.000,50.000 ZM57.857,17.949 C57.182,21.397 54.146,24.000 50.500,24.000 C46.776,24.000 43.695,21.284 43.109,17.726 C28.192,20.896 17.000,34.139 17.000,50.000 C17.000,68.225 31.775,83.000 50.000,83.000 C68.225,83.000 83.000,68.225 83.000,50.000 C83.000,34.483 72.288,21.475 57.857,17.949 ZM50.000,64.000 C42.268,64.000 36.000,57.732 36.000,50.000 C36.000,42.268 42.268,36.000 50.000,36.000 C57.732,36.000 64.000,42.268 64.000,50.000 C64.000,57.732 57.732,64.000 50.000,64.000 Z" class="cls-1"/>
</svg>
