<svg xmlns="http://www.w3.org/2000/svg" xmlns:xlink="http://www.w3.org/1999/xlink" preserveAspectRatio="xMidYMid" width="20" height="20" viewBox="0 0 20 20">
  <defs>
    <style>
      .cls-1 {
        fill: #00bff3;
        fill-rule: evenodd;
      }
    </style>
  </defs>
  <path d="M9.800,15.600 C6.597,15.600 4.000,13.003 4.000,9.800 C4.000,6.597 6.597,4.000 9.800,4.000 C13.003,4.000 15.600,6.597 15.600,9.800 C15.600,13.003 13.003,15.600 9.800,15.600 ZM9.800,5.050 C7.177,5.050 5.050,7.177 5.050,9.800 C5.050,12.423 7.177,14.550 9.800,14.550 C12.423,14.550 14.550,12.423 14.550,9.800 C14.550,7.177 12.423,5.050 9.800,5.050 ZM9.800,11.387 C8.923,11.387 8.213,10.677 8.213,9.800 C8.213,8.923 8.923,8.213 9.800,8.213 C10.677,8.213 11.387,8.923 11.387,9.800 C11.387,10.677 10.677,11.387 9.800,11.387 Z" class="cls-1"/>
</svg>
