<?xml version="1.0" standalone="no"?><!-- Generator: Gravit.io --><svg xmlns="http://www.w3.org/2000/svg" xmlns:xlink="http://www.w3.org/1999/xlink" style="isolation:isolate" viewBox="0 0 20 20" width="20" height="20"><defs><clipPath id="_clipPath_qa3t0ajDbtZibXG3shfCGiFgaAM4t8sI"><rect width="20" height="20"/></clipPath></defs><g clip-path="url(#_clipPath_qa3t0ajDbtZibXG3shfCGiFgaAM4t8sI)"><rect width="20" height="20" style="fill:rgb(45,45,45,0)"/><g style="isolation:isolate" id="Layer 0"><path d="M 14.698 10.54 L 14.698 10.54 C 14.4 10.837 13.916 10.837 13.619 10.54 L 10.381 7.302 C 10.084 7.005 10.084 6.521 10.381 6.223 L 10.381 6.223 C 10.679 5.926 11.163 5.926 11.46 6.223 L 14.698 9.46 C 14.995 9.758 14.995 10.242 14.698 10.54 Z" style="stroke:none;fill:#FFFFFF;stroke-miterlimit:10;"/><path d="M 9.619 10.54 L 9.619 10.54 C 9.321 10.837 8.837 10.837 8.54 10.54 L 5.302 7.302 C 5.005 7.005 5.005 6.521 5.302 6.223 L 5.302 6.223 C 5.6 5.926 6.084 5.926 6.381 6.223 L 9.619 9.46 C 9.916 9.758 9.916 10.242 9.619 10.54 Z" style="stroke:none;fill:#FFFFFF;stroke-miterlimit:10;"/><path d="M 14.698 9.46 L 14.698 9.46 C 14.995 9.758 14.995 10.242 14.698 10.54 L 11.46 13.777 C 11.163 14.074 10.679 14.074 10.381 13.777 L 10.381 13.777 C 10.084 13.479 10.084 12.995 10.381 12.698 L 13.619 9.46 C 13.916 9.163 14.4 9.163 14.698 9.46 Z" style="stroke:none;fill:#FFFFFF;stroke-miterlimit:10;"/><path d="M 9.619 9.46 L 9.619 9.46 C 9.916 9.758 9.916 10.242 9.619 10.54 L 6.381 13.777 C 6.084 14.074 5.6 14.074 5.302 13.777 L 5.302 13.777 C 5.005 13.479 5.005 12.995 5.302 12.698 L 8.54 9.46 C 8.837 9.163 9.321 9.163 9.619 9.46 Z" style="stroke:none;fill:#FFFFFF;stroke-miterlimit:10;"/></g></g></svg>