<svg xmlns="http://www.w3.org/2000/svg" xmlns:xlink="http://www.w3.org/1999/xlink" preserveAspectRatio="xMidYMid" width="20" height="20" viewBox="0 0 20 20">
  <defs>
    <style>
      .cls-1 {
        fill: #00bff3;
        fill-rule: evenodd;
      }
    </style>
  </defs>
  <path d="M13.200,12.400 C12.009,12.400 11.028,11.530 10.840,10.392 C10.826,10.393 10.814,10.400 10.800,10.400 L5.919,10.400 C5.753,10.864 5.321,11.200 4.800,11.200 C4.137,11.200 3.600,10.663 3.600,10.000 C3.600,9.337 4.137,8.800 4.800,8.800 C5.321,8.800 5.753,9.136 5.919,9.600 L10.800,9.600 C10.814,9.600 10.826,9.607 10.840,9.608 C11.028,8.470 12.009,7.600 13.200,7.600 C14.525,7.600 15.600,8.675 15.600,10.000 C15.600,11.325 14.525,12.400 13.200,12.400 Z" class="cls-1"/>
</svg>
