<svg xmlns="http://www.w3.org/2000/svg" xmlns:xlink="http://www.w3.org/1999/xlink" preserveAspectRatio="xMidYMid" width="20" height="20" viewBox="0 0 20 20">
  <defs>
    <style>
      .cls-1 {
        fill: #fff;
        fill-rule: evenodd;
      }
    </style>
  </defs>
  <path d="M11.827,9.980 L14.597,12.750 C15.108,13.260 15.108,14.087 14.597,14.597 C14.087,15.108 13.260,15.108 12.750,14.597 L9.980,11.827 L7.209,14.597 C6.699,15.108 5.872,15.108 5.362,14.597 C4.852,14.087 4.852,13.260 5.362,12.750 L8.132,9.980 L5.362,7.209 C4.852,6.699 4.852,5.872 5.362,5.362 C5.872,4.852 6.699,4.852 7.209,5.362 L9.980,8.132 L12.750,5.362 C13.260,4.852 14.087,4.852 14.597,5.362 C15.108,5.872 15.108,6.699 14.597,7.209 L11.827,9.980 Z" class="cls-1"/>
</svg>
