<svg xmlns="http://www.w3.org/2000/svg" xmlns:xlink="http://www.w3.org/1999/xlink" preserveAspectRatio="xMidYMid" width="20" height="20" viewBox="0 0 20 20">
  <defs>
    <style>
      .cls-1 {
        fill: #fff;
        fill-rule: evenodd;
      }
    </style>
  </defs>
  <path d="M10.566,10.000 L13.111,12.546 C13.267,12.702 13.267,12.955 13.111,13.111 C12.955,13.267 12.702,13.267 12.546,13.111 L10.000,10.566 L7.454,13.111 C7.298,13.267 7.045,13.267 6.889,13.111 C6.733,12.955 6.733,12.702 6.889,12.546 L9.434,10.000 L6.889,7.454 C6.733,7.298 6.733,7.045 6.889,6.889 C7.045,6.733 7.298,6.733 7.454,6.889 L10.000,9.434 L12.546,6.889 C12.702,6.733 12.955,6.733 13.111,6.889 C13.267,7.045 13.267,7.298 13.111,7.454 L10.566,10.000 Z" class="cls-1"/>
</svg>
