<?xml version="1.0" standalone="no"?><!-- Generator: Gravit.io --><svg xmlns="http://www.w3.org/2000/svg" xmlns:xlink="http://www.w3.org/1999/xlink" style="isolation:isolate" viewBox="0 0 20 20" width="20" height="20"><defs><clipPath id="_clipPath_0uVPQQbo232nH92lFdOzS0Z5iEUqVJpR"><rect width="20" height="20"/></clipPath></defs><g clip-path="url(#_clipPath_0uVPQQbo232nH92lFdOzS0Z5iEUqVJpR)"><rect width="20" height="20" style="fill:rgb(38,38,38,0)"/><g style="isolation:isolate" id="Layer 0"><path d="M 14.733 6.112 L 14.733 6.112 C 15.04 6.357 15.089 6.806 14.844 7.112 L 9.504 13.778 C 9.258 14.084 8.81 14.134 8.503 13.888 L 8.503 13.888 C 8.197 13.643 8.147 13.194 8.393 12.888 L 13.733 6.222 C 13.978 5.916 14.427 5.866 14.733 6.112 Z" style="stroke:none;fill:#FFFFFF;stroke-miterlimit:10;"/><path d="M 5.208 9.593 L 5.208 9.593 C 5.486 9.315 5.937 9.315 6.215 9.593 L 9.452 12.83 C 9.73 13.107 9.73 13.558 9.452 13.836 L 9.452 13.836 C 9.174 14.114 8.723 14.114 8.445 13.836 L 5.208 10.599 C 4.931 10.322 4.931 9.871 5.208 9.593 Z" style="stroke:none;fill:#FFFFFF;stroke-miterlimit:10;"/></g></g></svg>