<?xml version="1.0" standalone="no"?><!-- Generator: Gravit.io --><svg xmlns="http://www.w3.org/2000/svg" xmlns:xlink="http://www.w3.org/1999/xlink" style="isolation:isolate" viewBox="0 0 20 20" width="20" height="20"><defs><clipPath id="_clipPath_SCqG3sDWj2TMVdMPyKyEVU3Cbk1ODaKJ"><rect width="20" height="20"/></clipPath></defs><g clip-path="url(#_clipPath_SCqG3sDWj2TMVdMPyKyEVU3Cbk1ODaKJ)"><rect width="20" height="20" style="fill:rgb(45,45,45,0)"/><path d=" M 4.375 11.746 C 2.344 9.409 2.592 5.863 4.928 3.832 C 7.264 1.801 10.81 2.049 12.841 4.385 C 14.872 6.722 14.625 10.267 12.288 12.299 C 9.952 14.33 6.406 14.082 4.375 11.746 Z  M 5.786 10.519 C 4.432 8.961 4.597 6.597 6.155 5.243 C 7.712 3.889 10.076 4.054 11.43 5.612 C 12.784 7.17 12.619 9.533 11.062 10.888 C 9.504 12.242 7.14 12.076 5.786 10.519 Z " fill-rule="evenodd" fill="rgb(235,235,235)"/><path d="M 11.675 11.593 L 11.675 11.593 C 12.162 11.17 12.9 11.222 13.324 11.708 L 16.714 15.608 C 17.137 16.094 17.085 16.833 16.598 17.256 L 16.598 17.256 C 16.112 17.679 15.373 17.628 14.95 17.141 L 11.56 13.242 C 11.137 12.755 11.188 12.016 11.675 11.593 Z" style="stroke:none;fill:#EBEBEB;stroke-miterlimit:10;"/></g></svg>