<?xml version="1.0" standalone="no"?><!-- Generator: Gravit.io --><svg xmlns="http://www.w3.org/2000/svg" xmlns:xlink="http://www.w3.org/1999/xlink" style="isolation:isolate" viewBox="0 0 20 20" width="20" height="20"><defs><clipPath id="_clipPath_xcZAfzjlscTy298Y8X3LfOKHNpPuS1Yt"><rect width="20" height="20"/></clipPath></defs><g clip-path="url(#_clipPath_xcZAfzjlscTy298Y8X3LfOKHNpPuS1Yt)"><rect width="20" height="20" style="fill:rgb(38,38,38)" fill-opacity="0"/><path d=" M 4.726 11.94 C 2.777 9.263 3.368 5.508 6.044 3.559 C 8.721 1.61 12.476 2.201 14.425 4.877 C 16.374 7.554 15.783 11.309 13.107 13.258 C 10.43 15.207 6.675 14.616 4.726 11.94 Z  M 5.939 11.057 C 4.477 9.05 4.92 6.233 6.927 4.771 C 8.935 3.31 11.751 3.753 13.213 5.76 C 14.674 7.767 14.231 10.584 12.224 12.046 C 10.217 13.507 7.4 13.064 5.939 11.057 Z " fill-rule="evenodd" fill="rgb(255,255,255)"/><line x1="13.107" y1="13.258" x2="15.503" y2="16.447" vector-effect="non-scaling-stroke" stroke-width="1.5" stroke="rgb(255,255,255)" stroke-linejoin="miter" stroke-linecap="square" stroke-miterlimit="3"/></g></svg>