<svg xmlns="http://www.w3.org/2000/svg" xmlns:xlink="http://www.w3.org/1999/xlink" preserveAspectRatio="xMidYMid" width="20" height="20" viewBox="0 0 20 20">
  <defs>
    <style>
      .cls-1 {
        fill: #3e3e3e;
        fill-rule: evenodd;
      }
    </style>
  </defs>
  <path d="M14.800,11.200 C14.137,11.200 13.600,10.663 13.600,10.000 C13.600,9.337 14.137,8.800 14.800,8.800 C15.463,8.800 16.000,9.337 16.000,10.000 C16.000,10.663 15.463,11.200 14.800,11.200 ZM10.000,11.200 C9.337,11.200 8.800,10.663 8.800,10.000 C8.800,9.337 9.337,8.800 10.000,8.800 C10.663,8.800 11.200,9.337 11.200,10.000 C11.200,10.663 10.663,11.200 10.000,11.200 ZM5.200,11.200 C4.537,11.200 4.000,10.663 4.000,10.000 C4.000,9.337 4.537,8.800 5.200,8.800 C5.863,8.800 6.400,9.337 6.400,10.000 C6.400,10.663 5.863,11.200 5.200,11.200 Z" class="cls-1"/>
</svg>
