<svg xmlns="http://www.w3.org/2000/svg" xmlns:xlink="http://www.w3.org/1999/xlink" preserveAspectRatio="xMidYMid" width="20" height="20" viewBox="0 0 20 20">
  <defs>
    <style>
      .cls-1 {
        fill: #303030;
        fill-rule: evenodd;
      }
    </style>
  </defs>
  <path d="M12.800,13.198 C12.362,13.198 12.006,12.978 12.006,12.706 L12.006,7.291 C12.006,7.019 12.362,6.798 12.800,6.798 C13.238,6.798 13.594,7.019 13.594,7.291 L13.594,12.706 C13.594,12.978 13.238,13.198 12.800,13.198 ZM9.606,15.197 C9.164,15.197 8.806,14.839 8.806,14.397 L8.806,5.597 C8.806,5.156 9.164,4.797 9.606,4.797 C10.048,4.797 10.406,5.156 10.406,5.597 L10.406,14.397 C10.406,14.839 10.048,15.197 9.606,15.197 ZM6.400,13.198 C5.962,13.198 5.606,12.978 5.606,12.706 L5.606,7.291 C5.606,7.019 5.962,6.798 6.400,6.798 C6.838,6.798 7.194,7.019 7.194,7.291 L7.194,12.706 C7.194,12.978 6.838,13.198 6.400,13.198 Z" class="cls-1"/>
</svg>
