<svg xmlns="http://www.w3.org/2000/svg" xmlns:xlink="http://www.w3.org/1999/xlink" preserveAspectRatio="xMidYMid" width="20" height="20" viewBox="0 0 20 20">
  <defs>
    <style>
      .cls-1 {
        fill: #fff;
        fill-rule: evenodd;
      }
    </style>
  </defs>
  <path d="M14.500,10.000 L5.500,10.000 C5.224,10.000 5.000,9.776 5.000,9.500 C5.000,9.224 5.224,9.000 5.500,9.000 L14.500,9.000 C14.776,9.000 15.000,9.224 15.000,9.500 C15.000,9.776 14.776,10.000 14.500,10.000 ZM14.500,7.000 L5.500,7.000 C5.224,7.000 5.000,6.776 5.000,6.500 C5.000,6.224 5.224,6.000 5.500,6.000 L14.500,6.000 C14.776,6.000 15.000,6.224 15.000,6.500 C15.000,6.776 14.776,7.000 14.500,7.000 ZM5.500,12.000 L14.500,12.000 C14.776,12.000 15.000,12.224 15.000,12.500 C15.000,12.776 14.776,13.000 14.500,13.000 L5.500,13.000 C5.224,13.000 5.000,12.776 5.000,12.500 C5.000,12.224 5.224,12.000 5.500,12.000 Z" class="cls-1"/>
</svg>
