<svg xmlns="http://www.w3.org/2000/svg" xmlns:xlink="http://www.w3.org/1999/xlink" preserveAspectRatio="xMidYMid" width="20" height="20" viewBox="0 0 20 20">
  <defs>
    <style>
      .cls-1 {
        fill: #fff;
        fill-rule: evenodd;
      }
    </style>
  </defs>
  <path d="M15.800,16.800 C14.753,16.800 13.872,16.126 13.544,15.191 C13.529,15.192 13.516,15.200 13.500,15.200 L7.300,15.200 C7.238,15.200 7.181,15.185 7.126,15.165 C6.871,16.216 5.930,17.000 4.800,17.000 C3.475,17.000 2.400,15.925 2.400,14.600 C2.400,13.275 3.475,12.200 4.800,12.200 C4.893,12.200 4.982,12.217 5.073,12.228 L8.145,6.906 C7.810,6.493 7.600,5.974 7.600,5.400 C7.600,4.075 8.675,3.000 10.000,3.000 C11.325,3.000 12.400,4.075 12.400,5.400 C12.400,5.955 12.204,6.459 11.888,6.866 C11.896,6.878 11.909,6.885 11.916,6.898 L14.955,12.161 C15.219,12.061 15.501,12.000 15.800,12.000 C17.125,12.000 18.200,13.075 18.200,14.400 C18.200,15.725 17.125,16.800 15.800,16.800 ZM11.116,7.513 C10.781,7.690 10.405,7.800 10.000,7.800 C9.615,7.800 9.256,7.701 8.934,7.540 L6.039,12.554 C6.630,12.913 7.038,13.521 7.151,14.230 C7.198,14.215 7.247,14.200 7.300,14.200 L13.420,14.200 C13.469,13.615 13.717,13.087 14.110,12.697 L11.116,7.513 Z" class="cls-1"/>
</svg>
