<svg xmlns="http://www.w3.org/2000/svg" xmlns:xlink="http://www.w3.org/1999/xlink" preserveAspectRatio="xMidYMid" width="20" height="20" viewBox="0 0 20 20">
  <defs>
    <style>
      .cls-1 {
        fill: #03f6ff;
        fill-rule: evenodd;
      }
    </style>
  </defs>
  <path d="M16.000,14.800 L6.663,14.800 C6.442,14.800 6.262,14.621 6.262,14.400 L6.262,14.050 C6.262,13.829 6.442,13.650 6.663,13.650 L16.000,13.650 C16.221,13.650 16.400,13.829 16.400,14.050 L16.400,14.400 C16.400,14.621 16.221,14.800 16.000,14.800 ZM14.550,10.775 L5.212,10.775 C4.992,10.775 4.812,10.596 4.812,10.375 L4.812,10.025 C4.812,9.804 4.992,9.625 5.212,9.625 L14.550,9.625 C14.771,9.625 14.950,9.804 14.950,10.025 L14.950,10.375 C14.950,10.596 14.771,10.775 14.550,10.775 ZM13.337,6.750 L4.000,6.750 C3.779,6.750 3.600,6.571 3.600,6.350 L3.600,6.000 C3.600,5.779 3.779,5.600 4.000,5.600 L13.337,5.600 C13.558,5.600 13.738,5.779 13.738,6.000 L13.738,6.350 C13.738,6.571 13.558,6.750 13.337,6.750 Z" class="cls-1"/>
</svg>
