<svg xmlns="http://www.w3.org/2000/svg" xmlns:xlink="http://www.w3.org/1999/xlink" preserveAspectRatio="xMidYMid" width="20" height="20" viewBox="0 0 20 20">
  <defs>
    <style>
      .cls-1 {
        fill: #ffea00;
        fill-rule: evenodd;
      }
    </style>
  </defs>
  <path d="M15.200,15.800 C14.095,15.800 13.200,14.905 13.200,13.800 C13.200,13.178 13.490,12.630 13.935,12.263 L11.161,8.140 C11.141,8.109 11.143,8.073 11.144,8.037 C10.819,8.264 10.426,8.400 10.000,8.400 C9.654,8.400 9.334,8.304 9.050,8.150 L6.280,12.275 C6.717,12.642 7.000,13.185 7.000,13.800 C7.000,14.905 6.105,15.800 5.000,15.800 C3.895,15.800 3.000,14.905 3.000,13.800 C3.000,12.695 3.895,11.800 5.000,11.800 C5.346,11.800 5.666,11.896 5.949,12.050 L8.719,7.924 C8.283,7.558 8.000,7.015 8.000,6.400 C8.000,5.295 8.895,4.400 10.000,4.400 C11.105,4.400 12.000,5.295 12.000,6.400 C12.000,6.970 11.759,7.481 11.377,7.845 C11.423,7.853 11.466,7.877 11.493,7.917 L14.267,12.041 C14.547,11.892 14.861,11.800 15.200,11.800 C16.305,11.800 17.200,12.695 17.200,13.800 C17.200,14.905 16.305,15.800 15.200,15.800 ZM5.000,12.200 C4.116,12.200 3.400,12.916 3.400,13.800 C3.400,14.684 4.116,15.400 5.000,15.400 C5.884,15.400 6.600,14.684 6.600,13.800 C6.600,12.916 5.884,12.200 5.000,12.200 ZM11.600,6.400 C11.600,5.516 10.884,4.800 10.000,4.800 C9.116,4.800 8.400,5.516 8.400,6.400 C8.400,7.284 9.116,8.000 10.000,8.000 C10.884,8.000 11.600,7.284 11.600,6.400 ZM15.200,12.200 C14.316,12.200 13.600,12.916 13.600,13.800 C13.600,14.684 14.316,15.400 15.200,15.400 C16.084,15.400 16.800,14.684 16.800,13.800 C16.800,12.916 16.084,12.200 15.200,12.200 Z" class="cls-1"/>
</svg>
