<?xml version="1.0" standalone="no"?><!-- Generator: Gravit.io --><svg xmlns="http://www.w3.org/2000/svg" xmlns:xlink="http://www.w3.org/1999/xlink" style="isolation:isolate" viewBox="0 0 20 20" width="20" height="20"><defs><clipPath id="_clipPath_r9q0wyyJszMW2NahYTaoFYhdGhQBkWqA"><rect width="20" height="20"/></clipPath></defs><g clip-path="url(#_clipPath_r9q0wyyJszMW2NahYTaoFYhdGhQBkWqA)"><rect width="20" height="20" style="fill:rgb(49,49,49,0)"/><path d=" M 3.982 5.5 L 16.018 5.5 C 16.67 5.5 17.2 6.03 17.2 6.682 L 17.2 13.318 C 17.2 13.97 16.67 14.5 16.018 14.5 L 3.982 14.5 C 3.33 14.5 2.8 13.97 2.8 13.318 L 2.8 6.682 C 2.8 6.03 3.33 5.5 3.982 5.5 M 11.4 7.8 C 11.4 8.242 11.042 8.6 10.6 8.6 L 5.8 8.6 C 5.358 8.6 5 8.242 5 7.8 C 5 7.358 5.358 7 5.8 7 L 10.6 7 C 11.042 7 11.4 7.358 11.4 7.8 M 3.982 5.5 Z  M 15.4 11.8 C 15.4 12.242 15.042 12.6 14.6 12.6 L 9.8 12.6 C 9.358 12.6 9 12.242 9 11.8 C 9 11.358 9.358 11 9.8 11 L 14.6 11 C 15.042 11 15.4 11.358 15.4 11.8 Z " fill-rule="evenodd" fill="rgb(235,235,235)"/></g></svg>