<?xml version="1.0" standalone="no"?><!-- Generator: Gravit.io --><svg xmlns="http://www.w3.org/2000/svg" xmlns:xlink="http://www.w3.org/1999/xlink" style="isolation:isolate" viewBox="0 0 20 20" width="20" height="20"><defs><clipPath id="_clipPath_HgqA7s2EH2F46qbJZ1EFrBs9dPeW3gMg"><rect width="20" height="20"/></clipPath></defs><g clip-path="url(#_clipPath_HgqA7s2EH2F46qbJZ1EFrBs9dPeW3gMg)"><rect width="20" height="20" style="fill:rgb(45,44,44, 0)"/><path d="M 9.333 9.333 L 10.667 9.333 C 12.506 9.333 14 10.827 14 12.667 L 14 16 C 14 16 14 16 14 16 L 6 16 C 6 16 6 16 6 16 L 6 12.667 C 6 10.827 7.494 9.333 9.333 9.333 Z" style="stroke:none;fill:#FFFFFF;stroke-miterlimit:10;"/><path d=" M 7.333 6.667 C 7.333 5.195 8.528 4 10 4 C 11.472 4 12.667 5.195 12.667 6.667 C 12.667 8.138 11.472 9.333 10 9.333 C 8.528 9.333 7.333 8.138 7.333 6.667 Z " fill="rgb(255,255,255)"/></g></svg>