<svg xmlns="http://www.w3.org/2000/svg" xmlns:xlink="http://www.w3.org/1999/xlink" preserveAspectRatio="xMidYMid" width="30" height="30" viewBox="0 0 30 30">
  <defs>
    <style>
      .cls-1 {
        fill: #5d8e5e;
        fill-rule: evenodd;
      }
    </style>
  </defs>
  <path d="M28.500,30.000 L1.440,30.000 C0.612,30.000 -0.060,29.328 -0.060,28.500 L-0.060,1.440 C-0.060,0.612 0.612,-0.060 1.440,-0.060 L28.500,-0.060 C29.328,-0.060 30.000,0.612 30.000,1.440 L30.000,28.500 C30.000,29.328 29.328,30.000 28.500,30.000 ZM10.396,15.282 L7.992,18.500 L5.988,15.282 L2.874,15.282 L6.294,20.774 L1.920,26.629 L5.215,26.629 L7.792,23.179 L9.940,26.629 L13.055,26.629 L9.490,20.905 L13.690,15.282 L10.396,15.282 ZM16.721,10.901 L14.538,26.629 L17.360,26.629 L19.543,10.901 L16.721,10.901 ZM26.392,15.480 C25.764,15.153 25.100,14.990 24.401,14.990 C23.405,14.990 22.541,15.289 21.810,15.887 C21.079,16.485 20.714,17.260 20.714,18.213 C20.714,18.894 20.947,19.541 21.413,20.152 C21.745,20.591 22.349,21.116 23.225,21.727 C23.980,22.256 24.443,22.623 24.613,22.828 C24.782,23.033 24.867,23.233 24.867,23.427 C24.867,23.671 24.756,23.881 24.533,24.058 C24.311,24.236 24.012,24.324 23.638,24.324 C22.699,24.324 21.833,23.810 21.042,22.781 L19.294,24.783 C20.071,25.597 20.776,26.157 21.408,26.463 C22.040,26.768 22.741,26.922 23.511,26.922 C24.846,26.922 25.864,26.546 26.567,25.795 C27.270,25.044 27.621,24.248 27.621,23.407 C27.621,22.767 27.449,22.174 27.106,21.628 C26.763,21.083 26.049,20.427 24.966,19.662 C24.286,19.183 23.879,18.859 23.744,18.692 C23.603,18.525 23.532,18.359 23.532,18.192 C23.532,18.018 23.620,17.861 23.797,17.722 C23.974,17.583 24.190,17.514 24.445,17.514 C24.778,17.514 25.135,17.634 25.518,17.874 C25.900,18.113 26.265,18.487 26.612,18.995 L27.960,16.867 C27.543,16.269 27.021,15.807 26.392,15.480 Z" class="cls-1"/>
</svg>
